<svg width="180" height="60" viewBox="0 0 180 60" fill="none" xmlns="http://www.w3.org/2000/svg">
  <!-- Eye shape -->
  <path d="M60 30C60 30 50 45 35 45C20 45 10 30 10 30C10 30 20 15 35 15C50 15 60 30 60 30Z" fill="#3662ae" stroke="#3662ae" stroke-width="2"/>
  <!-- Pupil -->
  <circle cx="35" cy="30" r="10" fill="white"/>
  <circle cx="35" cy="30" r="5" fill="#3662ae"/>
  <!-- Text -->
  <path d="M73 22H76.1L81.4 35.6L86.7 22H89.8V40H87.1V28.1L82.6 40H80.2L75.7 28.1V40H73V22Z" fill="#3662ae"/>
  <path d="M98.8 22C100.5 22 101.9 22.3 103.1 22.9C104.3 23.5 105.2 24.4 105.9 25.5C106.6 26.6 106.9 28 106.9 29.5V32.5C106.9 34 106.6 35.4 105.9 36.5C105.2 37.6 104.3 38.5 103.1 39.1C101.9 39.7 100.5 40 98.8 40H92.5V22H98.8ZM98.8 37.5C100.3 37.5 101.4 37.1 102.3 36.3C103.1 35.5 103.5 34.4 103.5 33V29C103.5 27.6 103.1 26.5 102.3 25.7C101.4 24.9 100.3 24.5 98.8 24.5H95.9V37.5H98.8Z" fill="#3662ae"/>
  <path d="M120.1 22C121.6 22 122.9 22.3 124 22.9C125.1 23.5 125.9 24.3 126.5 25.4C127.1 26.5 127.4 27.7 127.4 29.1C127.4 30.5 127.1 31.7 126.5 32.8C125.9 33.9 125.1 34.7 124 35.3C122.9 35.9 121.6 36.2 120.1 36.2H116.9V40H113.5V22H120.1ZM120 32.8C121 32.8 121.8 32.5 122.4 31.9C123 31.3 123.3 30.5 123.3 29.5C123.3 28.5 123 27.7 122.4 27.1C121.8 26.5 121 26.2 120 26.2H116.9V32.8H120Z" fill="#3662ae"/>
  <path d="M140.8 40H137.4L136.1 36.2H129.8L128.5 40H125.1L131.3 22H134.6L140.8 40ZM135.1 32.8L132.95 26.7L130.8 32.8H135.1Z" fill="#3662ae"/>
  <path d="M147.7 40H144.3V25.4H139.6V22H152.4V25.4H147.7V40Z" fill="#3662ae"/>
  <path d="M154 22H157.4V32.7C157.4 33.9 157.7 34.8 158.3 35.5C158.9 36.2 159.7 36.5 160.8 36.5C161.9 36.5 162.7 36.2 163.3 35.5C163.9 34.8 164.2 33.9 164.2 32.7V22H167.6V32.7C167.6 34.1 167.3 35.3 166.7 36.3C166.1 37.3 165.3 38.1 164.2 38.6C163.1 39.1 162 39.4 160.8 39.4C159.6 39.4 158.5 39.1 157.4 38.6C156.3 38.1 155.5 37.3 154.9 36.3C154.3 35.3 154 34.1 154 32.7V22Z" fill="#3662ae"/>
  <path d="M175.6 25.4H170.7V22H183.9V25.4H179V40H175.6V25.4Z" fill="#3662ae"/>
</svg> 