<svg xmlns="http://www.w3.org/2000/svg" viewBox="0 0 24 24" width="24" height="24" fill="none">
  <path d="M12 14.25C13.2426 14.25 14.25 13.2426 14.25 12C14.25 10.7574 13.2426 9.75 12 9.75C10.7574 9.75 9.75 10.7574 9.75 12C9.75 13.2426 10.7574 14.25 12 14.25Z" fill="#61DAFB"/>
  <path d="M12 16.5C11.9875 16.5 11.9751 16.5 11.9625 16.5C11.0079 16.4594 10.0596 16.1953 9.15356 15.7172C6.83433 14.4391 5.25 12.6188 5.25 12C5.25 11.7047 5.40607 11.1844 6.17458 10.3828C7.08232 9.44215 8.55004 8.51655 10.5421 7.84096C10.6115 7.81524 10.6878 7.8023 10.7654 7.80257C10.8429 7.80328 10.9189 7.81698 10.9877 7.84317C11.0566 7.86937 11.1168 7.90742 11.1644 7.95473C11.2119 8.00204 11.2457 8.05748 11.2633 8.11756C11.2809 8.17764 11.2818 8.24073 11.2661 8.30129C11.2504 8.36186 11.2183 8.41816 11.1723 8.46669C11.1262 8.51522 11.0673 8.55466 11.0001 8.58245C9.2611 9.1741 8.00635 9.96249 7.25754 10.7391C6.87498 11.1375 6.75 11.4281 6.75 11.9906C6.75 11.9906 6.75 12 6.75 12C6.75 12.1125 6.83668 12.7406 8.4389 13.9297C9.54761 14.7234 11.1656 15.1969 11.9578 15.0219C12.0074 15.0073 12.0595 15.0001 12.1125 15C12.165 15.0002 12.2171 15.0073 12.2667 15.0219C12.2956 15.0264 12.3244 15.0309 12.3563 15.0422C12.373 15.0468 12.3891 15.0531 12.4044 15.0609C12.6048 15.1477 12.8203 15.1942 13.0312 15.1875C13.3581 15.1859 13.68 15.1017 13.9653 14.9422C14.5028 14.7094 14.8496 14.2781 15.1406 13.8516C15.2002 13.7673 15.2817 13.702 15.376 13.6631C15.4704 13.6241 15.5743 13.6134 15.675 13.6317C15.7757 13.65 15.8693 13.6967 15.9446 13.7666C16.0199 13.8365 16.0739 13.9267 16.1 14.025C16.1261 14.1233 16.1232 14.2269 16.0917 14.3235C16.0603 14.42 16.0016 14.5067 15.9225 14.5719C15.5437 15.0938 15.0827 15.6844 14.3203 16.0125C13.9138 16.1992 13.4702 16.2938 13.0218 16.2891C12.6951 16.2931 12.3699 16.2479 12.0586 16.1555C12.0375 16.1531 12.0164 16.1508 12 16.1508L12 16.5Z" fill="#61DAFB"/>
  <path d="M11.7284 16.5C11.6662 16.5 11.604 16.4977 11.5394 16.4953C10.5581 16.5049 9.58379 16.311 8.67188 15.9234C8.57491 15.8869 8.49293 15.8202 8.43761 15.7331C8.3823 15.646 8.35629 15.5431 8.36316 15.4398C8.37003 15.3364 8.40949 15.2381 8.47604 15.1591C8.54259 15.0801 8.63312 15.0241 8.73516 14.9975C8.83721 14.9708 8.94611 14.9748 9.0452 15.009C9.14429 15.0432 9.22825 15.1062 9.28688 15.1879C9.34551 15.2697 9.37568 15.3663 9.37312 15.4648C9.96563 15.7219 10.4859 15.8813 11.5394 15.825C11.7284 15.825 11.9859 15.7969 12.1944 15.7359C13.3594 15.4172 14.5666 14.7984 15.7828 13.92C16.5497 13.3672 17.175 12.6891 17.5991 12.0703C17.7328 11.8734 17.8221 11.6516 17.8616 11.4181C17.901 11.1847 17.8897 10.9453 17.8284 10.7156C17.5359 9.83437 16.3875 8.7375 14.9766 7.95C14.8847 7.8975 14.8069 7.81992 14.7525 7.72501C14.6982 7.6301 14.6691 7.52135 14.6683 7.41033C14.6675 7.29931 14.6949 7.19011 14.7478 7.09435C14.8006 6.99859 14.8772 6.91973 14.9683 6.86563C15.0594 6.81152 15.1622 6.78411 15.2662 6.78638C15.3702 6.78865 15.4717 6.82052 15.5607 6.87854C15.6497 6.93655 15.7232 7.01861 15.7726 7.11654C15.8219 7.21447 15.8454 7.3237 15.8406 7.43437C17.7591 8.5125 18.7359 9.83437 19.1413 10.9969C19.2627 11.4246 19.2845 11.8747 19.205 12.3126C19.1255 12.7505 18.9468 13.1638 18.684 13.5188C18.1922 14.2219 17.4891 14.9906 16.6312 15.6C15.3141 16.5234 13.9687 17.2031 12.6047 17.5781C12.3162 17.6521 12.0233 17.701 11.7284 17.7244V16.5Z" fill="#61DAFB"/>
  <path d="M16.9687 21.75C16.7889 21.75 16.61 21.7243 16.438 21.6739C15.66 21.4687 15.0037 20.7844 14.5219 19.6875C14.4829 19.5925 14.4738 19.4884 14.4956 19.3881C14.5175 19.2878 14.5695 19.1957 14.645 19.1229C14.7205 19.05 14.8164 19 14.9196 18.9783C15.0228 18.9566 15.1296 18.9642 15.228 19.0C15.3261 19.0362 15.4101 19.1004 15.4679 19.1842C15.5256 19.268 15.5542 19.3673 15.55 19.4687C15.7977 19.9897 16.0735 20.4091 16.3406 20.6531C16.5187 20.8219 16.6781 20.8828 16.8319 20.8219C17.275 20.6859 17.6969 20.1328 18.0563 19.2844C18.0833 19.224 18.1232 19.1702 18.1735 19.1267C18.2237 19.0831 18.283 19.0507 18.3474 19.0317C18.4117 19.0127 18.4797 19.0075 18.5463 19.0166C18.613 19.0256 18.6771 19.0486 18.7344 19.0844C18.7918 19.1188 18.8413 19.1654 18.8796 19.2208C18.9178 19.2763 18.9439 19.3395 18.9562 19.4059C18.9685 19.4723 18.9667 19.5405 18.9509 19.6063C18.9351 19.6722 18.9056 19.7342 18.8644 19.7875C18.4053 20.8172 17.825 21.4687 17.1094 21.6844C17.0646 21.6981 17.0185 21.7075 16.9725 21.7125L16.9687 21.75Z" fill="#61DAFB"/>
  <path d="M7.03125 21.75H6.9375C5.69063 21.5156 4.5 19.5188 4.5 16.5C4.5 15.6975 4.58906 14.8584 4.75781 14.0531C4.77626 13.9553 4.82081 13.8635 4.88656 13.7868C4.95232 13.7101 5.03677 13.6511 5.13125 13.6164C5.22573 13.5816 5.32707 13.5723 5.42553 13.5892C5.52399 13.6062 5.61634 13.6489 5.69375 13.713C5.77115 13.7771 5.83105 13.8606 5.86736 13.9552C5.90367 14.0497 5.91507 14.1518 5.90033 14.2519C5.8856 14.352 5.84528 14.4468 5.7827 14.5272C5.72012 14.6077 5.63747 14.6714 5.54297 14.7117C5.39062 15.4453 5.30156 16.2 5.30156 16.9372C5.30156 19.4531 6.21094 20.8313 6.86719 20.9531C7.19063 21.0516 7.68516 20.7797 8.15391 20.2125C8.19893 20.1573 8.25575 20.1131 8.32033 20.0834C8.38491 20.0536 8.45566 20.0392 8.5271 20.0411C8.59855 20.043 8.66839 20.0612 8.73121 20.0944C8.79403 20.1276 8.84831 20.175 8.89031 20.2327C8.93231 20.2903 8.9631 20.3568 8.98063 20.4284C8.99816 20.4999 9.00195 20.5749 8.9918 20.649C8.98164 20.7231 8.95774 20.7944 8.92155 20.8586C8.88535 20.9229 8.83762 20.9786 8.78125 21.0225C8.31563 21.5366 7.76953 21.8156 7.23984 21.75H7.03125Z" fill="#61DAFB"/>
  <path d="M14.4656 7.58437C14.4 7.58437 14.3344 7.57031 14.2688 7.53984C13.9969 7.42499 13.725 7.31014 13.4578 7.19997C13.7156 7.00778 13.9688 6.81091 14.2359 6.60936C14.2784 6.57632 14.3269 6.55205 14.3789 6.5378C14.4309 6.52356 14.4854 6.51959 14.5393 6.52608C14.5933 6.53257 14.6457 6.54942 14.694 6.57576C14.7422 6.6021 14.7854 6.63752 14.8213 6.68007C14.8572 6.72262 14.8852 6.77153 14.9037 6.82399C14.9221 6.87645 14.9307 6.93157 14.9289 6.9869C14.9271 7.04223 14.9151 7.09655 14.8932 7.14752C14.8713 7.19848 14.84 7.24521 14.8008 7.28499C14.6891 7.38749 14.5797 7.49468 14.4633 7.58437H14.4656Z" fill="#61DAFB"/>
  <path d="M9.98442 7.125C9.80098 7.12501 9.61936 7.08695 9.45236 7.01321C9.28537 6.93947 9.13688 6.83159 9.01562 6.69702C8.52798 6.153 8.11719 5.55097 7.79297 4.90547C7.42969 4.15781 7.38047 3.61641 7.63359 3.25312C7.87734 2.89922 8.40703 2.82656 9.20625 3.03281C9.27845 3.05203 9.34508 3.08793 9.40079 3.13776C9.45649 3.18759 9.5 3.24999 9.52913 3.31987C9.55825 3.38975 9.57222 3.4654 9.56994 3.54156C9.56766 3.61772 9.5492 3.69239 9.51602 3.7604C9.48284 3.82841 9.43585 3.88802 9.37796 3.93447C9.32007 3.98092 9.25278 4.01289 9.17949 4.02774C9.1062 4.04259 9.02902 4.03988 8.95699 4.02C8.38125 3.87187 8.03906 3.94219 7.97578 4.09219C7.92891 4.19531 8.00156 4.50234 8.32734 5.16797C8.625 5.75631 8.99766 6.30236 9.43594 6.79687C9.70781 6.90469 9.89063 6.7125 10.132 6.78047C10.2075 6.8044 10.2771 6.84359 10.3367 6.89551C10.3964 6.94742 10.445 7.01095 10.4795 7.0823C10.514 7.15366 10.5337 7.23121 10.5374 7.31036C10.5411 7.38951 10.5288 7.46827 10.5011 7.54186C10.4734 7.61545 10.4309 7.68236 10.3764 7.73842C10.322 7.79448 10.2567 7.83835 10.1848 7.86702C10.1129 7.89569 10.0359 7.90856 9.9586 7.90478C9.88128 7.90101 9.80594 7.88065 9.73828 7.84547C9.73828 7.84547 9.73828 7.84547 9.73828 7.84312C9.53905 7.76104 9.33023 7.70429 9.1172 7.67434L9.98442 7.125Z" fill="#61DAFB"/>
</svg> 