<svg width="24" height="24" viewBox="0 0 24 24" fill="none" xmlns="http://www.w3.org/2000/svg">
  <path d="M19.589 6.69005C19.022 6.41205 18.5231 6.00405 18.1291 5.49905C17.6051 4.83605 17.284 4.04005 17.2 3.20005H17.208C17.118 2.64605 17.188 2.05005 17.208 1.77005H14.004V15.955C14.004 16.141 14.004 16.325 13.994 16.506C13.994 16.521 13.994 16.533 13.993 16.547C13.993 16.558 13.991 16.569 13.99 16.579C13.99 16.584 13.99 16.589 13.989 16.594C13.988 16.606 13.986 16.617 13.985 16.628C13.967 16.759 13.937 16.889 13.896 17.015C13.894 17.021 13.892 17.028 13.89 17.035C13.888 17.042 13.886 17.048 13.884 17.055C13.874 17.083 13.863 17.11 13.852 17.138C13.851 17.14 13.85 17.143 13.849 17.145C13.735 17.441 13.559 17.708 13.332 17.927C13.129 18.124 12.891 18.282 12.629 18.39C12.57 18.414 12.51 18.435 12.45 18.453C12.038 18.565 11.601 18.566 11.189 18.456C10.924 18.383 10.673 18.262 10.45 18.1C10.357 18.039 10.269 17.97 10.189 17.895C10.129 17.84 10.072 17.783 10.019 17.723C9.7573 17.425 9.5761 17.071 9.496 16.692C9.469 16.534 9.456 16.375 9.456 16.215C9.4589 15.886 9.5216 15.56 9.64 15.254C9.7573 14.953 9.933 14.682 10.154 14.458C10.324 14.288 10.522 14.142 10.739 14.027C11.059 13.858 11.42 13.766 11.79 13.76C11.964 13.755 12.135 13.773 12.304 13.807C12.35 13.817 12.397 13.831 12.444 13.845V10.774C12.3705 10.762 12.2951 10.756 12.218 10.756C12.09 10.755 11.963 10.759 11.835 10.767C11.651 10.779 11.468 10.803 11.287 10.84C10.962 10.907 10.646 11.011 10.346 11.15C10.039 11.292 9.748 11.463 9.476 11.661C9.34 11.766 9.209 11.879 9.081 11.997C8.986 12.084 8.894 12.175 8.805 12.267C8.778 12.296 8.75 12.323 8.724 12.351C8.473 12.62 8.242 12.905 8.034 13.203C8.007 13.24 7.981 13.279 7.956 13.317C7.809 13.534 7.678 13.756 7.562 13.988C7.489 14.134 7.423 14.284 7.364 14.437C7.364 14.44 7.363 14.442 7.362 14.444C7.1229 15.0355 6.986 15.6647 6.956 16.304C6.954 16.384 6.95 16.464 6.95 16.545C6.9505 17.2032 7.0941 17.8532 7.371 18.446C7.4766 18.686 7.6014 18.917 7.744 19.137C7.785 19.2 7.828 19.262 7.872 19.324C7.946 19.424 8.024 19.522 8.105 19.617C8.242 19.776 8.387 19.928 8.54 20.072C8.724 20.244 8.92 20.403 9.127 20.548C9.267 20.646 9.412 20.738 9.559 20.824C9.6341 20.8707 9.71 20.915 9.787 20.957C10.0455 21.08 10.3133 21.184 10.589 21.267C10.67 21.2938 10.7517 21.3178 10.834 21.339C11.2168 21.441 11.6075 21.5 12 21.5C12.387 21.5 12.771 21.444 13.147 21.344C13.219 21.324 13.29 21.302 13.361 21.279C13.616 21.201 13.864 21.102 14.103 20.982C14.2 20.933 14.295 20.881 14.389 20.825C14.5358 20.7414 14.6777 20.6495 14.814 20.55C15.036 20.4 15.245 20.234 15.439 20.051C15.583 19.916 15.718 19.771 15.847 19.619C15.929 19.522 16.007 19.422 16.082 19.32C16.127 19.259 16.169 19.197 16.211 19.135C16.3557 18.913 16.4821 18.6813 16.589 18.442C16.75 18.09 16.866 17.72 16.936 17.34C16.9572 17.2144 16.9712 17.088 16.978 16.961C16.979 16.941 16.98 16.921 16.981 16.901C16.993 16.751 17 16.601 17 16.451V8.24005C17.025 8.25505 17.049 8.27205 17.073 8.28705C17.114 8.31505 17.154 8.34305 17.195 8.37005C17.335 8.46105 17.476 8.54705 17.623 8.62605C17.861 8.75705 18.104 8.87205 18.355 8.97005C18.516 9.03305 18.681 9.09005 18.847 9.13905C19.103 9.21505 19.363 9.27505 19.626 9.32105C19.779 9.34805 19.932 9.36905 20.087 9.38405C20.2195 9.3942 20.3525 9.39933 20.486 9.40005V6.22905C20.188 6.22905 19.895 6.19705 19.604 6.14105C19.599 6.14005 19.594 6.14005 19.589 6.13905V6.69005Z" fill="#3662ae"/>
</svg> 