<svg width="24" height="24" viewBox="0 0 24 24" fill="none" xmlns="http://www.w3.org/2000/svg">
  <path d="M22 5.79986C21.2642 6.12586 20.4733 6.34186 19.643 6.44286C20.4908 5.93786 21.1417 5.14086 21.4475 4.18086C20.655 4.65286 19.7767 4.98686 18.8417 5.16686C18.0942 4.37186 17.0267 3.87486 15.8467 3.87486C13.5808 3.87486 11.7492 5.70686 11.7492 7.97186C11.7492 8.29086 11.7767 8.60086 11.8425 8.89586C8.435 8.73186 5.41833 7.09086 3.3925 4.62086C3.04417 5.23686 2.83833 5.93786 2.83833 6.68586C2.83833 8.10386 3.56167 9.35686 4.6525 10.0985C3.99 10.0818 3.3475 9.89786 2.8 9.59186C2.8 9.60686 2.8 9.62486 2.8 9.64286C2.8 11.6345 4.22167 13.2678 6.085 13.6452C5.75167 13.7352 5.3883 13.7795 5.01333 13.7795C4.7475 13.7795 4.4775 13.7628 4.22083 13.7052C4.7625 15.3048 6.2725 16.4795 8.065 16.5128C6.67 17.5962 4.89917 18.2412 2.98083 18.2412C2.6475 18.2412 2.32333 18.2245 2 18.1778C3.81583 19.3478 5.9725 20 8.29 20C15.835 20 19.96 13.8478 19.96 8.51186C19.96 8.33786 19.9542 8.16786 19.945 7.99986C20.7583 7.42186 21.4483 6.69786 22 5.79986Z" fill="#3662ae"/>
</svg> 